<svg width="300" height="91" viewBox="0 0 300 91" fill="none" xmlns="http://www.w3.org/2000/svg">
<path d="M99.578 45.7984C99.7692 45.7984 99.936 45.7272 100.078 45.5849C100.221 45.4426 100.287 45.2758 100.279 45.0846C100.279 44.981 100.267 44.8989 100.244 44.8383C100.22 44.7777 100.197 44.7357 100.174 44.7124L97.8329 41.4084C99.4123 39.8392 100.263 37.4504 100.384 34.242C100.43 33.2085 100.454 32.2211 100.454 31.2795C100.454 30.338 100.43 29.3462 100.384 28.304C100.333 26.1538 99.8962 24.3617 99.0744 22.9275C98.2526 21.4934 97.1246 20.4216 95.6905 19.7122C94.2563 19.0028 92.5846 18.6481 90.6753 18.6481C88.7661 18.6481 87.0943 19.0028 85.6602 19.7122C84.226 20.4216 83.1039 21.4934 82.2938 22.9275C81.4836 24.3617 81.0414 26.1538 80.9669 28.304C80.9436 29.3462 80.9319 30.338 80.9319 31.2795C80.9319 32.2211 80.9436 33.2085 80.9669 34.242C81.0414 36.4155 81.4658 38.2182 82.2401 39.6502C83.0145 41.0821 84.1129 42.1437 85.5354 42.8348C86.9579 43.526 88.6712 43.8716 90.6753 43.8716C92.3292 43.8716 93.7845 43.5899 95.0413 43.0264L96.4776 44.9926C96.5944 45.1328 96.7484 45.3021 96.9396 45.5006C97.1308 45.6991 97.3724 45.7984 97.6643 45.7984H99.578ZM90.6753 40.8834C88.9179 40.8834 87.465 40.3472 86.3168 39.2749C85.1686 38.2026 84.5521 36.4644 84.4674 34.0603C84.4441 33.018 84.4324 32.0824 84.4324 31.2533C84.4324 30.4242 84.4441 29.4929 84.4674 28.4594C84.5288 26.8567 84.8316 25.551 85.3761 24.5423C85.9206 23.5337 86.6512 22.7972 87.5681 22.3328C88.485 21.8685 89.5207 21.6363 90.6753 21.6363C91.8533 21.6363 92.8995 21.8685 93.814 22.3328C94.7285 22.7972 95.458 23.5337 96.0025 24.5423C96.5469 25.551 96.8404 26.8567 96.8827 28.4594C96.9294 29.4929 96.9527 30.4242 96.9527 31.2533C96.9527 32.0824 96.9294 33.018 96.8827 34.0603C96.8024 36.4644 96.1919 38.2026 95.0511 39.2749C93.9104 40.3472 92.4518 40.8834 90.6753 40.8834ZM105.268 43.5213C105.545 43.5213 105.754 43.4505 105.893 43.3089C106.032 43.1673 106.118 43.041 106.15 42.9301L108.073 37.9423H119.562L121.484 42.9301C121.535 43.041 121.627 43.1673 121.759 43.3089C121.891 43.4505 122.094 43.5213 122.367 43.5213H124.151C124.342 43.5213 124.509 43.4501 124.651 43.3078C124.793 43.1655 124.864 42.9987 124.864 42.8075C124.864 42.6951 124.843 42.5754 124.801 42.4484L116.135 19.7845C116.046 19.5465 115.915 19.356 115.744 19.213C115.572 19.0699 115.329 18.9984 115.014 18.9984H112.621C112.306 18.9984 112.062 19.0699 111.891 19.213C111.719 19.356 111.589 19.5465 111.5 19.7845L102.834 42.4484C102.791 42.5754 102.77 42.6951 102.77 42.8075C102.77 42.9987 102.841 43.1655 102.984 43.3078C103.126 43.4501 103.293 43.5213 103.484 43.5213H105.268ZM118.544 34.9536H109.091L113.814 22.5165L118.544 34.9536ZM144.336 43.5213C144.593 43.5213 144.796 43.4468 144.945 43.2979C145.094 43.149 145.168 42.9556 145.168 42.7177V41.2994C145.168 41.0425 145.094 40.8396 144.945 40.6907C144.796 40.5418 144.593 40.4674 144.336 40.4674H131.444L144.343 22.5739C144.464 22.4148 144.57 22.2408 144.661 22.0517C144.753 21.8627 144.798 21.6229 144.798 21.3325V19.8304C144.798 19.5735 144.724 19.3706 144.575 19.2218C144.426 19.0729 144.223 18.9984 143.966 18.9984H128.099C127.861 18.9984 127.667 19.0729 127.518 19.2218C127.369 19.3706 127.295 19.5735 127.295 19.8304V21.2356C127.295 21.4735 127.369 21.6669 127.518 21.8158C127.667 21.9647 127.861 22.0391 128.099 22.0391H140.553L127.499 39.8625C127.424 39.956 127.318 40.1114 127.18 40.3289C127.042 40.5464 126.973 40.8281 126.973 41.1741V42.6892C126.973 42.9272 127.048 43.1253 127.196 43.2837C127.345 43.4421 127.539 43.5213 127.777 43.5213H144.336ZM149.761 43.5213C150.038 43.5213 150.247 43.4505 150.386 43.3089C150.526 43.1673 150.611 43.041 150.643 42.9301L152.566 37.9423H164.055L165.977 42.9301C166.028 43.041 166.12 43.1673 166.252 43.3089C166.384 43.4505 166.587 43.5213 166.86 43.5213H168.644C168.835 43.5213 169.002 43.4501 169.144 43.3078C169.286 43.1655 169.357 42.9987 169.357 42.8075C169.357 42.6951 169.336 42.5754 169.294 42.4484L160.628 19.7845C160.539 19.5465 160.408 19.356 160.237 19.213C160.065 19.0699 159.822 18.9984 159.507 18.9984H157.114C156.799 18.9984 156.555 19.0699 156.384 19.213C156.212 19.356 156.082 19.5465 155.993 19.7845L147.327 42.4484C147.285 42.5754 147.263 42.6951 147.263 42.8075C147.263 42.9987 147.335 43.1655 147.477 43.3078C147.619 43.4501 147.786 43.5213 147.977 43.5213H149.761ZM163.037 34.9536H153.584L158.307 22.5165L163.037 34.9536ZM190.342 45.7984C190.534 45.7984 190.7 45.7272 190.843 45.5849C190.985 45.4426 191.052 45.2758 191.043 45.0846C191.043 44.981 191.031 44.8989 191.008 44.8383C190.985 44.7777 190.961 44.7357 190.938 44.7124L188.597 41.4084C190.177 39.8392 191.027 37.4504 191.148 34.242C191.195 33.2085 191.218 32.2211 191.218 31.2795C191.218 30.338 191.195 29.3462 191.148 28.304C191.097 26.1538 190.661 24.3617 189.839 22.9275C189.017 21.4934 187.889 20.4216 186.455 19.7122C185.021 19.0028 183.349 18.6481 181.44 18.6481C179.53 18.6481 177.859 19.0028 176.425 19.7122C174.99 20.4216 173.868 21.4934 173.058 22.9275C172.248 24.3617 171.806 26.1538 171.731 28.304C171.708 29.3462 171.696 30.338 171.696 31.2795C171.696 32.2211 171.708 33.2085 171.731 34.242C171.806 36.4155 172.23 38.2182 173.004 39.6502C173.779 41.0821 174.877 42.1437 176.3 42.8348C177.722 43.526 179.435 43.8716 181.44 43.8716C183.093 43.8716 184.549 43.5899 185.806 43.0264L187.242 44.9926C187.359 45.1328 187.513 45.3021 187.704 45.5006C187.895 45.6991 188.137 45.7984 188.429 45.7984H190.342ZM181.44 40.8834C179.682 40.8834 178.229 40.3472 177.081 39.2749C175.933 38.2026 175.316 36.4644 175.232 34.0603C175.208 33.018 175.197 32.0824 175.197 31.2533C175.197 30.4242 175.208 29.4929 175.232 28.4594C175.293 26.8567 175.596 25.551 176.14 24.5423C176.685 23.5337 177.416 22.7972 178.332 22.3328C179.249 21.8685 180.285 21.6363 181.44 21.6363C182.618 21.6363 183.664 21.8685 184.578 22.3328C185.493 22.7972 186.222 23.5337 186.767 24.5423C187.311 25.551 187.605 26.8567 187.647 28.4594C187.694 29.4929 187.717 30.4242 187.717 31.2533C187.717 32.0824 187.694 33.018 187.647 34.0603C187.567 36.4644 186.956 38.2026 185.815 39.2749C184.675 40.3472 183.216 40.8834 181.44 40.8834ZM207.44 43.5213C207.678 43.5213 207.871 43.4468 208.02 43.2979C208.169 43.149 208.243 42.9556 208.243 42.7177V25.4899L214.114 36.9023C214.231 37.1271 214.374 37.3055 214.544 37.4376C214.714 37.5697 214.946 37.6358 215.24 37.6358H216.326C216.619 37.6358 216.855 37.5697 217.035 37.4376C217.215 37.3055 217.353 37.1271 217.451 36.9023L223.321 25.4899V42.7177C223.321 42.9556 223.396 43.149 223.544 43.2979C223.693 43.4468 223.887 43.5213 224.125 43.5213H225.826C226.083 43.5213 226.286 43.4468 226.435 43.2979C226.584 43.149 226.658 42.9556 226.658 42.7177V19.8304C226.658 19.5735 226.584 19.3706 226.435 19.2218C226.286 19.0729 226.083 18.9984 225.826 18.9984H224.105C223.828 18.9984 223.624 19.0699 223.495 19.213C223.366 19.356 223.276 19.467 223.225 19.5458L215.783 33.7039L208.369 19.5458C208.337 19.467 208.251 19.356 208.113 19.213C207.974 19.0699 207.766 18.9984 207.489 18.9984H205.739C205.501 18.9984 205.303 19.0729 205.145 19.2218C204.986 19.3706 204.907 19.5735 204.907 19.8304V42.7177C204.907 42.9556 204.986 43.149 205.145 43.2979C205.303 43.4468 205.501 43.5213 205.739 43.5213H207.44ZM246.055 17.2468C246.289 17.2468 246.475 17.1767 246.615 17.0366C246.756 16.8965 246.826 16.7096 246.826 16.4761V15.1448C246.826 14.9113 246.756 14.7244 246.615 14.5843C246.475 14.4442 246.289 14.3741 246.055 14.3741H237.892C237.659 14.3741 237.472 14.4442 237.332 14.5843C237.192 14.7244 237.122 14.9113 237.122 15.1448V16.4761C237.122 16.7096 237.192 16.8965 237.332 17.0366C237.472 17.1767 237.659 17.2468 237.892 17.2468H246.055ZM241.991 43.8716C243.976 43.8716 245.67 43.5213 247.071 42.8206C248.472 42.12 249.552 41.0515 250.311 39.6151C251.07 38.1788 251.45 36.3279 251.45 34.0625V19.8392C251.45 19.5823 251.374 19.3779 251.222 19.2261C251.07 19.0743 250.878 18.9984 250.644 18.9984H248.823C248.589 18.9984 248.396 19.0743 248.244 19.2261C248.093 19.3779 248.017 19.5823 248.017 19.8392V34.1325C248.017 36.4213 247.474 38.1146 246.388 39.2122C245.302 40.3099 243.836 40.8588 241.991 40.8588C240.123 40.8588 238.651 40.3099 237.577 39.2122C236.503 38.1146 235.966 36.4213 235.966 34.1325V19.8392C235.966 19.5823 235.89 19.3779 235.738 19.2261C235.586 19.0743 235.382 18.9984 235.125 18.9984H233.338C233.081 18.9984 232.883 19.0743 232.743 19.2261C232.602 19.3779 232.532 19.5823 232.532 19.8392V34.0625C232.532 36.3279 232.912 38.1788 233.671 39.6151C234.43 41.0515 235.516 42.12 236.929 42.8206C238.342 43.5213 240.029 43.8716 241.991 43.8716ZM259.903 43.5213C260.16 43.5213 260.363 43.4468 260.512 43.2979C260.661 43.149 260.735 42.9556 260.735 42.7177V33.664H266.869L271.959 42.5754C272.086 42.7958 272.248 43.0085 272.443 43.2136C272.639 43.4187 272.932 43.5213 273.323 43.5213H275.011C275.203 43.5213 275.369 43.4501 275.512 43.3078C275.654 43.1655 275.725 42.9987 275.725 42.8075C275.725 42.6907 275.69 42.5622 275.62 42.4221L270.229 33.1253C271.782 32.6714 273.006 31.8806 273.898 30.753C274.791 29.6253 275.237 28.1558 275.237 26.3443C275.237 23.9139 274.467 22.082 272.926 20.8486C271.385 19.6151 269.303 18.9984 266.68 18.9984H258.104C257.866 18.9984 257.673 19.0729 257.524 19.2218C257.375 19.3706 257.3 19.5735 257.3 19.8304V42.7177C257.3 42.9556 257.375 43.149 257.524 43.2979C257.673 43.4468 257.866 43.5213 258.104 43.5213H259.903ZM266.538 30.7081H260.735V21.928H266.538C268.298 21.928 269.605 22.3032 270.457 23.0534C271.31 23.8037 271.736 24.8963 271.736 26.3312C271.736 27.7661 271.308 28.8543 270.451 29.5958C269.594 30.3373 268.29 30.7081 266.538 30.7081ZM280.404 43.5213C280.681 43.5213 280.889 43.4505 281.029 43.3089C281.168 43.1673 281.254 43.041 281.286 42.9301L283.209 37.9423H294.697L296.62 42.9301C296.671 43.041 296.763 43.1673 296.895 43.3089C297.027 43.4505 297.229 43.5213 297.502 43.5213H299.287C299.478 43.5213 299.645 43.4501 299.787 43.3078C299.929 43.1655 300 42.9987 300 42.8075C300 42.6951 299.979 42.5754 299.936 42.4484L291.27 19.7845C291.181 19.5465 291.051 19.356 290.879 19.213C290.708 19.0699 290.465 18.9984 290.149 18.9984H287.757C287.441 18.9984 287.198 19.0699 287.026 19.213C286.855 19.356 286.725 19.5465 286.636 19.7845L277.969 42.4484C277.927 42.5754 277.906 42.6951 277.906 42.8075C277.906 42.9987 277.977 43.1655 278.119 43.3078C278.262 43.4501 278.428 43.5213 278.62 43.5213H280.404ZM293.679 34.9536H284.227L288.95 22.5165L293.679 34.9536Z" fill="#414141"/>
<path d="M88.0324 62.6435V60.4383H87.1575V52.6482H86.5224V60.4383H81.8842V52.6482H81.249V61.0375H87.3973V62.6435H88.0324ZM90.0699 61.0375L95.0316 53.8227V61.0375H95.6668V52.6482H95.1035L90.1538 59.863V52.6482H89.5186V61.0375H90.0699ZM101.851 61.0375V60.0907C104.212 60.0069 105.95 58.9042 105.95 56.8428C105.95 54.7815 104.212 53.6789 101.851 53.595V52.6482H101.204V53.595C98.8428 53.6789 97.105 54.7815 97.105 56.8428C97.105 58.9042 98.8428 60.0069 101.204 60.0907V61.0375H101.851ZM101.204 59.5035C99.1424 59.4196 97.7522 58.5327 97.7522 56.8428C97.7522 55.153 99.1424 54.2661 101.204 54.1822V59.5035ZM101.851 59.5035V54.1822C103.912 54.2661 105.303 55.153 105.303 56.8428C105.303 58.5327 103.912 59.4196 101.851 59.5035ZM108.023 61.0375V57.8376H110.24C111.75 57.8376 112.853 56.723 112.853 55.2489C112.853 53.7627 111.75 52.6482 110.24 52.6482H107.388V61.0375H108.023ZM110.24 57.2384H108.023V53.2474H110.24C111.391 53.2474 112.218 54.0863 112.218 55.2489C112.218 56.3994 111.391 57.2384 110.24 57.2384ZM118.21 61.1694C120.631 61.1694 122.537 59.2398 122.537 56.8428C122.537 54.4459 120.631 52.5163 118.21 52.5163C115.789 52.5163 113.884 54.4459 113.884 56.8428C113.884 59.2398 115.789 61.1694 118.21 61.1694ZM118.21 60.5582C116.137 60.5582 114.519 58.9042 114.519 56.8428C114.519 54.7815 116.137 53.1275 118.21 53.1275C120.284 53.1275 121.902 54.7815 121.902 56.8428C121.902 58.9042 120.284 60.5582 118.21 60.5582ZM127.762 61.0375C129.033 61.0375 130.051 60.0188 130.051 58.7484C130.051 57.7897 129.452 57.0106 128.613 56.687C129.26 56.3395 129.692 55.6683 129.692 54.8534C129.692 53.6429 128.709 52.6482 127.487 52.6482H124.143V61.0375H127.762ZM127.487 56.4593H124.778V53.2474H127.487C128.349 53.2474 129.057 53.9665 129.057 54.8534C129.057 55.7402 128.349 56.4593 127.487 56.4593ZM127.762 60.4383H124.778V57.0586H127.762C128.673 57.0586 129.416 57.8136 129.416 58.7484C129.416 59.6833 128.673 60.4383 127.762 60.4383ZM131.418 61.0375L132.233 58.9042H136.439L137.254 61.0375H137.925L134.677 52.6482H134.006L130.746 61.0375H131.418ZM136.212 58.305H132.472L134.342 53.4272L136.212 58.305ZM139.268 61.0375L141.641 57.5979H143.942V61.0375H144.577V52.6482H141.257C139.891 52.6482 138.788 53.7628 138.788 55.129C138.788 56.3754 139.723 57.4181 140.934 57.5739L138.549 61.0375H139.268ZM143.942 56.9987H141.257C140.25 56.9987 139.423 56.1597 139.423 55.129C139.423 54.0863 140.25 53.2474 141.257 53.2474H143.942V56.9987ZM152.894 61.0375C154.261 61.0375 155.375 59.923 155.375 58.5567C155.375 57.2024 154.261 56.0878 152.894 56.0878H150.497V53.2474H154.692V52.6482H149.862V61.0375H152.894ZM152.894 60.4383H150.497V56.687H152.894C153.901 56.687 154.728 57.526 154.728 58.5567C154.728 59.5994 153.901 60.4383 152.894 60.4383ZM157.425 61.0375L162.386 53.8227V61.0375H163.022V52.6482H162.458L157.509 59.863V52.6482H156.873V61.0375H157.425ZM168.139 61.0375C169.505 61.0375 170.62 59.923 170.62 58.5567C170.62 57.2024 169.505 56.0878 168.139 56.0878H165.742V53.2474H169.937V52.6482H165.107V61.0375H168.139ZM168.139 60.4383H165.742V56.687H168.139C169.146 56.687 169.973 57.526 169.973 58.5567C169.973 59.5994 169.146 60.4383 168.139 60.4383ZM173.496 57.49V53.2474H177.523V61.0375H178.17V52.6482H172.861V57.478C172.861 59.923 172.154 60.6061 171.051 60.4743V61.0375C172.598 61.1694 173.496 60.2825 173.496 57.49ZM180.795 61.0375L185.757 53.8227V61.0375H186.392V52.6482H185.829L180.879 59.863V52.6482H180.244V61.0375H180.795ZM192.325 61.1694C194.746 61.1694 196.651 59.2398 196.651 56.8428C196.651 54.4459 194.746 52.5163 192.325 52.5163C189.904 52.5163 187.998 54.4459 187.998 56.8428C187.998 59.2398 189.904 61.1694 192.325 61.1694ZM192.325 60.5582C190.251 60.5582 188.633 58.9042 188.633 56.8428C188.633 54.7815 190.251 53.1275 192.325 53.1275C194.398 53.1275 196.016 54.7815 196.016 56.8428C196.016 58.9042 194.398 60.5582 192.325 60.5582ZM200.295 61.0375V53.2474H202.931V52.6482H197.011V53.2474H199.647V61.0375H200.295ZM209.079 61.0375V60.4383H204.885V57.1065H208.72V56.5073H204.885V53.2474H209.019V52.6482H204.249V61.0375H209.079ZM216.067 61.0375V52.6482H215.431V56.8069C214.64 57.1904 213.945 57.3582 213.07 57.3582C211.788 57.3582 211.069 56.6391 211.069 55.6084V52.6482H210.434V55.6084C210.434 56.9387 211.404 57.9574 213.07 57.9574C213.945 57.9574 214.64 57.7897 215.431 57.4061V61.0375H216.067ZM218.787 61.0375V57.0226H223.665V61.0375H224.3V52.6482H223.665V56.4234H218.787V52.6482H218.152V61.0375H218.787ZM226.194 61.0375L227.009 58.9042H231.215L232.03 61.0375H232.702L229.454 52.6482H228.782L225.523 61.0375H226.194ZM230.988 58.305H227.248L229.118 53.4272L230.988 58.305ZM234.044 61.0375L236.417 57.5979H238.718V61.0375H239.353V52.6482H236.033C234.667 52.6482 233.564 53.7628 233.564 55.129C233.564 56.3754 234.499 57.4181 235.71 57.5739L233.325 61.0375H234.044ZM238.718 56.9987H236.033C235.027 56.9987 234.2 56.1597 234.2 55.129C234.2 54.0863 235.027 53.2474 236.033 53.2474H238.718V56.9987ZM248.521 61.1694C250.092 61.1694 251.458 60.3544 252.141 59.12L251.578 58.7964C251.026 59.851 249.852 60.5582 248.521 60.5582C246.316 60.5582 244.794 58.9042 244.794 56.8428C244.794 54.7815 246.316 53.1275 248.521 53.1275C249.84 53.1275 251.002 53.8227 251.554 54.8534L252.117 54.5298C251.422 53.3073 250.068 52.5163 248.521 52.5163C245.969 52.5163 244.159 54.4459 244.159 56.8428C244.159 59.2398 245.969 61.1694 248.521 61.1694ZM254.19 61.0375L259.152 53.8227V61.0375H259.787V52.6482H259.224L254.274 59.863V52.6482H253.639V61.0375H254.19ZM265.756 61.1694C267.326 61.1694 268.692 60.3544 269.375 59.12L268.812 58.7964C268.261 59.851 267.086 60.5582 265.756 60.5582C263.551 60.5582 262.028 58.9042 262.028 56.8428C262.028 54.7815 263.551 53.1275 265.756 53.1275C267.074 53.1275 268.237 53.8227 268.788 54.8534L269.351 54.5298C268.656 53.3073 267.302 52.5163 265.756 52.5163C263.203 52.5163 261.393 54.4459 261.393 56.8428C261.393 59.2398 263.203 61.1694 265.756 61.1694ZM273.27 61.0375V53.2474H275.907V52.6482H269.986V53.2474H272.623V61.0375H273.27ZM282.055 61.0375V60.4383H277.86V57.1065H281.696V56.5073H277.86V53.2474H281.995V52.6482H277.225V61.0375H282.055ZM284.248 61.0375V53.583L287.352 58.7365H287.46L290.564 53.583V61.0375H291.2V52.6482H290.397L287.4 57.6099L284.404 52.6482H283.613V61.0375H284.248ZM293.093 61.0375L293.908 58.9042H298.115L298.93 61.0375H299.601L296.353 52.6482H295.682L292.422 61.0375H293.093ZM297.887 58.305H294.148L296.017 53.4272L297.887 58.305Z" fill="#414141"/>
<path d="M0 85.9291C0 60.4383 0 34.9014 0 9.41052C5.34709 9.41052 10.6481 9.41052 16.1334 9.41052C16.1334 6.13773 16.1334 3.18762 16.1334 0.191406C23.1861 0.191406 30.2848 0.191406 37.3374 0.191406C37.3374 4.93925 37.3374 9.641 37.3374 14.3888C41.1633 14.3888 44.6666 14.3888 48.4464 14.3888C48.4464 11.0239 48.4464 7.79717 48.4464 4.34001C55.6834 4.34001 62.6439 4.34001 69.6043 4.34001C69.6043 29.8309 69.6043 55.3678 69.6043 80.8586C64.2572 80.8586 58.9562 80.8586 53.4709 80.8586C53.4709 84.4541 53.4709 87.7269 53.4709 90.9997C46.4182 90.9997 39.3195 90.9997 32.2669 90.9997C32.2669 86.2518 32.2669 81.5501 32.2669 76.8022C28.441 76.8022 24.9377 76.8022 21.1579 76.8022C21.1579 79.8445 21.1579 82.7946 21.1579 85.9291C13.967 85.9291 6.96043 85.9291 0 85.9291ZM21.3422 5.35411C21.3422 27.5722 21.3422 49.4676 21.3422 71.4551C25.0299 71.4551 28.5792 71.4551 32.1286 71.4551C32.1286 49.3293 32.1286 27.3417 32.1286 5.35411C28.441 5.35411 24.9377 5.35411 21.3422 5.35411ZM53.563 75.6498C57.2507 75.6498 60.8001 75.6498 64.3494 75.6498C64.3494 53.524 64.3494 31.5364 64.3494 9.5488C60.6618 9.5488 57.1585 9.5488 53.563 9.5488C53.563 31.5825 53.563 53.4779 53.563 75.6498ZM15.9952 80.7664C15.9952 58.5945 15.9952 36.6069 15.9952 14.6654C12.2614 14.6654 8.71206 14.6654 5.2088 14.6654C5.2088 36.7913 5.2088 58.7328 5.2088 80.7664C8.80425 80.7664 12.3075 80.7664 15.9952 80.7664ZM48.3082 19.6898C44.5283 19.6898 41.0251 19.6898 37.5218 19.6898C37.5218 41.8157 37.5218 63.8033 37.5218 85.7448C41.2094 85.7448 44.8049 85.7448 48.3082 85.7448C48.3082 63.665 48.3082 41.7235 48.3082 19.6898Z" fill="#125CFA"/>
</svg>
